/* XPM */
static char *bd57a656307249e2e9d7f51ff59456ee0xZqhlCT7ZIEhE3U[] = {
/* columns rows colors chars-per-pixel */
"57 100 169 2 ",
"   c None",
".  c gray12",
"X  c #252525",
"o  c #2C2C2C",
"O  c #343434",
"+  c #3D3D3D",
"@  c gray27",
"#  c gray29",
"$  c #545454",
"%  c #5C5C5C",
"&  c #765555",
"*  c #715E5E",
"=  c #7A5E5D",
"-  c #646464",
";  c #6A6A6A",
":  c #737373",
">  c #7C7C7B",
",  c #8E1313",
"<  c #8E1A1A",
"1  c #931615",
"2  c #951917",
"3  c #991A17",
"4  c #951B1A",
"5  c #9C1D1A",
"6  c #A01F1C",
"7  c #91201F",
"8  c #9E201D",
"9  c #A3221E",
"0  c #A9241F",
"q  c #8F2F2C",
"w  c #952423",
"e  c #932E2C",
"r  c #9B2D2B",
"t  c #9E302E",
"y  c #953534",
"u  c #9B3231",
"i  c #9F3A36",
"p  c #9F3B39",
"a  c #A52420",
"s  c #A92621",
"d  c #A62B26",
"f  c #AC2924",
"g  c #A62D29",
"h  c #AD2F29",
"j  c #B22D26",
"k  c #AD312B",
"l  c #B0312B",
"z  c #A33633",
"x  c #A53C37",
"c  c #A43F3D",
"v  c #AB3D38",
"b  c #9B403D",
"n  c #A7413C",
"m  c #8E4140",
"M  c #824F4E",
"N  c #9D4342",
"B  c #934E4C",
"V  c #9B4F4C",
"C  c #9E5755",
"Z  c #A74A46",
"A  c #AD4C4A",
"S  c #A5514E",
"D  c #AF524E",
"F  c #B0514C",
"G  c #A25755",
"H  c #A05F5A",
"J  c #AA5E5D",
"K  c #8B6868",
"L  c #956463",
"P  c #996664",
"I  c #956A6A",
"U  c #9C6D6B",
"Y  c #8F7A7A",
"T  c #957474",
"R  c #957E7D",
"E  c #9B7A7A",
"W  c #A46160",
"Q  c #A26C6A",
"!  c #AD6F6D",
"~  c #A3716F",
"^  c #AC7774",
"/  c #A77877",
"(  c #B17B79",
")  c #7F807F",
"_  c #838383",
"`  c #8C8484",
"'  c #878888",
"]  c #8C8C8C",
"[  c #918785",
"{  c #918A8A",
"}  c #9B8D8C",
"|  c #90908F",
" . c #949393",
".. c #9B9595",
"X. c #979798",
"o. c gray62",
"O. c #9F9F9F",
"+. c #9E9F9F",
"@. c #9D9D9D",
"#. c #9B9B9B",
"$. c #A28281",
"%. c #A48886",
"&. c #A08D8C",
"*. c #A09191",
"=. c #A09F9F",
"-. c #A19E9E",
";. c #AA9D9C",
":. c #B19795",
">. c #B19897",
",. c #B09998",
"<. c #A0A09F",
"1. c #B0A19F",
"2. c #9F9FA0",
"3. c #A09FA0",
"4. c #A0A0A0",
"5. c gray63",
"6. c #A1A1A1",
"7. c #A2A2A2",
"8. c gray64",
"9. c #A3A3A2",
"0. c #A2A2A1",
"q. c #A3A3A4",
"w. c #A4A4A4",
"e. c #A5A5A5",
"r. c #A4A5A4",
"t. c gray65",
"y. c #A7A7A7",
"u. c #A7A6A7",
"i. c #A5A6A5",
"p. c #A4A4A4",
"a. c #A7A8A7",
"s. c #A7A8A7",
"d. c #A8A8A7",
"f. c #A7A7A8",
"g. c #A9A9A9",
"h. c #A8A8A8",
"j. c #ABABAB",
"k. c #AAAAA9",
"l. c #AEAEAE",
"z. c #ABABAB",
"x. c #B3A2A1",
"c. c #B1ADAD",
"v. c #AFB0AF",
"b. c #B0B0AF",
"n. c #AFAFB0",
"m. c gray69",
"M. c #B2B2B2",
"N. c #B5B5B5",
"B. c #B3B3B3",
"V. c #BAB5B4",
"C. c #B7B7B8",
"Z. c #B7B8B8",
"A. c #BBBBBB",
"S. c #B9B9B9",
"D. c gray75",
"F. c #BBBBBB",
"G. c #C0BFC0",
"H. c #BFC0C0",
"J. c gray76",
"K. c #C7C7C7",
"L. c #C2C2C2",
"P. c #C9CAC9",
"I. c #CBCBCB",
"U. c #D1D1D1",
"Y. c #D4D4D4",
"T. c #DBDBDB",
"R. c #E4E4E3",
"E. c #E8E7E8",
"W. c #ECECEC",
/* pixels */
"                                                                                                                  ",
"                                                                                                                  ",
"                                                                                                                  ",
"      M.                                                                                                          ",
"      k.k.                                                                                                        ",
"      y.k.y.K.                                                                                                    ",
"      M.k.q.f.y.                                                                                                  ",
"      K.k.y.y.5.o.k.                                                                                              ",
"        k.5.y.5.2.5.<.k.                                                                                          ",
"        f.5.| o.5.o.o.o.y.v.                                                                              K.N.I.  ",
"        s.5.X.5.2.5.2.o.<.X.X.o.k.                                                                  L.n.h.k.h.    ",
"        k.y. . .p.5.o.o.o.X.X.X.X. . .X.k.                                                      G.5.q.q.k.k.k.    ",
"        y.<.] y.y.9.o.#.#.#.X.X.X. . . . .| ]  . .l.                                      J.o.<.o.] o.w.y.y.U.    ",
"        I.5.] 5.<.9.<.#.#.X.#.X.X.X.X. . .] ] ] ] ] ] ' _ ' ] ] ] ] ]  .X.M.l.y.2.2.X.<.X.o.o.@.5.X.5.s.y.y.      ",
"          ' ] 5.o.5.9.<.#.#.X.#.X. .X.| | | ] ] ] ' ] ] ] ' ] ' ] ] ]  .{  . . . .X.X.#.o.<.#.<.X.]  .s.k.M.      ",
"          y.] o.<.5.<.<.#.#.X. .X. .|  .|  .{ ] ] ] ] ] ] ' ] ] ] ] ] ]  . . . .X. .X.#.o.<.o.o.=.' y.5.5.        ",
"          y.5.5.5.o.o.o.o.X.X. . .X. .|  .| | | ] ` K L ` ] ] ' ] ] | | |  . .X.X.X.#.X.X.o.o.o.o.' o.y.y.        ",
"          y.5.5.5.5.5.5.o.o.#.X.X.X.X.X. .| e 9 h a 2 s 6 5 d w Y | | | .. . .| X.X.#.o.5.5.5.o.' ] =.y.l.        ",
"          N.y.y.y.5.o.o.o.o.X.#.X. . .{ i , 5 2 j f a 5 6 , 2 1 h h ` | |  . . .#.X.<.X.X.=.5.<.5.| 5.9.          ",
"          A.y.3.<.5.5.o.o.o.#. .X.#.E 5 5 8 s 9 3 2 6 , 9 5 9 j a , d b X.| | #.#.X.X.<.5.o.] y.5.X.y.k.          ",
"          A.5.5.] 5.o.o.<.o.o.X.X.X.w 9 8 0 8 , s a 2 s 3 9 0 , 5 5 9 3 t X. .X.X...X.@.X.] ' 5.5.5.5.K.          ",
"          F.y. .] 5.5.o.o.X.o.#.X.T 1 f 2 3 s 9 2 2 5 6 5 5 9 8 h , 1 , 0 y #.#.#.<.#.#.o.] ' o.y.5.5.            ",
"          A.y.] ] <.<.5.o.<.X.o.} 4 3 9 8 5 , , 9 5 0 3 8 2 8 , h 5 4 2 9 3 b #.#.#.#.@.#. .] 5.5.y.m.            ",
"          S.k. .] 5.o.5.5.<.o. .0 6 5 5 3 4 a 8 , 8 5 8 , 9 9 5 1 0 8 5 1 9 3 P <.@.#.#.o.o.] y.y.q.              ",
"          A.y.y.] 5.5.y.<.<.@.n 0 2 4 s k 8 s 4 f 2 1 0 0 0 9 3 h z X.b 9 j 5 d o.X.<.@.o.p.w.5.5.l.              ",
"          K.y.y.5.5.y.5.<.p.5.4 9 s L #.o.X.X. .X. . .} R R #.#. .X.#.X.t 8 9 2 L o.o.o.5.5.5.s.y.                ",
"          Y.j.f.y.w.5.5.p.o.5.U k u o.X.o.o.X.o.#.X.X.X.X.#.X.X.#.#.<.X.B 8 1 3 w 2.#.] X.p.y.5.M.                ",
"          U.l.k.y.y.w.y.y.2.p.2.<.<.5.<.o.o.o.o.#.#.#.X.#.o.X.o.X.o.#.<.U 0 2 f k 2.<.X.5.9.y.5.                  ",
"          Y.l.k.k.k.5.w.5.o.2.5.<.o.2.p.2.<.2.5.#.<.o.X.X.#. .#.#.#.#.<.U 9 f 8 < 5.w.]  .5.y.o.                  ",
"          U.k.k.j.k.y.w.y.w.w.5.<.<.2.<.5.o.X.o.<.<.<.#.#.o.o.o.#.#.o.<.Z 9 1 0 v y.y.] 5.y.y.M.                  ",
"          Y.y.5. .y.f.f.f.5.5.q.y.y.p.o.o.o.@.@.#.<.9.<.o.<.X.o.o.<.<.#.5 2 8 , I 5.w.| y.k.y.Y.                  ",
"          Y.k.y.2.k.k.k.y.y.5.w.<.5.2.5.5.<.o.o.#.<.<.5.5.o.5.o.o.o.<.t 1 9 3 r 3.5.' | f.k.y.                    ",
"          Y.l.f.| 2.l.j.h.w.w.q.y.5.5.w.5.y.3.9.o.=.5.9.p.2.2.2.<.&.e 5 8 j 3 %.y.5.w.| k.j.J.                    ",
"            l.k. .h.h.g.h.y.w.w.w.y.w.9.5.3.w.9.5.9.<.<.p.p.2.} V 5 0 9 8 9 U s.w.w.h.q.h.k.Y.                    ",
"            j.k. .n.l.g.l.h.j.f.w.y.t.h.y.5.3.5.9.y.9.t.p.<.C 2 5 9 2 2 5 ~ p.p.y.y.k.l.j.k.                      ",
"            m. .X.n.l.h.l.n.f.h.h.y.y.5.y.w.9.h.y.t.9.-.H 5 5 f s , 0 7 E i.p.s.k.f.l.j.f.k.                      ",
"            N.l. .m.m.l.j.l.j.w.h.k.j.k.y.q.h.h.5.*.G f 1 s s , a 1 G s.z.9.y.z.j.y. .j.m.k.                      ",
"            m.m.j.m.l.k.l.j.n.h.y.k.j.k.f.h.3.$.u 5 1 9 2 5 5 , g 3.h.k.k.k.k.k.k. .| l.k.l.                      ",
"            B.N.l.m.n.l.l.h.j.n.j.k.h.j.*.N , , 3 5 s 9 , , 5 P g.f.f.k.k.l.k.k.k.X. .l.l.L.                      ",
"            N.N.m.m.m.m.l.n.l.n.m.k.y 5 1 3 a a , a 5 5 , Q j.k.l.l.l.k.k.k.k.l.l.5. .l.n.Y.                      ",
"            A.M.l.#.n.m.N.m.j.j.F 2 5 s j 2 s 1 s 1 4 %.k.c.l.k.s.n.l.l.k.k.n.j.n.k. .j.l.                        ",
"            F.N.2.3.m.N.N.m.n.x 9 s 9 6 6 1 5 w ^ ;.j.j.l.l.l.k.j.n.n.j.l.l.n.l.v.n.m.M.M.                        ",
"            F.N.l.#.N.N.m.B.S 2 s 3 2 6 f / 3.c.l.l.j.l.n.j.n.n.n.l.v.l.j.m.M.l.v.v.n.c.M.                        ",
"            J.A. .#.N.M.N.c.s s 1 s 2 5 ,.m.m.N.l.l.n.n.l.m.l.l.l.M.B.v.M.M.M.M.N.M.v.B.M.                        ",
"              A.C.2.N.B.C.>.5 9 2 6 a ,.N.M.B.N.m.M.m.n.n.M.n.B.l.m.M.B.N.B.N.N.C.B.B.N.M.                        ",
"              A.S.A.B.C.C.W 1 6 2 5 Q B.N.N.m.C.M.N.N.l.m.m.l.m.B.m.m.N.N.N.N.N.A.N.A.C.M.                        ",
"              A.G.S.S.C.C.f 5 s 5 1 ! B.N.m.B.M.N.N.C.m.m.N.M.N.M.M.B.B.N.N.B.l.o.l.A.C.B.                        ",
"              A.F.F.S.A.S.9 5 5 s f N B.B.B.B.m.B.N.C.N.N.N.M.m.B.C.N.C.M.B.B.M.k.M.A.A.A.                        ",
"              A.A.5.N.F.F.z 1 6 f 1 2 C.C.C.N.N.B.N.N.C.C.N.N.B.M.M.M.M.N.N.N.N.X.y.N.A.A.                        ",
"              F.A.M.F.F.F.( , 9 3 6 s A C.C.N.C.N.N.C.C.S.C.N.N.C.C.C.F.A.A.A.M.o.A.N.A.I.                        ",
"              J.A.5.l.F.F.V.5 , 6 , 1 a D C.C.C.C.C.C.V.S.S.C.S.V.C.Z.Z.Z.N.C.C.o.F.A.A.                          ",
"              K.F.y.J.F.J.F.A 0 , 0 1 5 f w B.C.A.G.G.A.C.G.S.S.Z.Z.C.F.Z.A.A.X.5.F.J.J.                          ",
"              K.G.w.H.H.D.J.A.a 1 6 0 6 1 f 1 u x.A.A.C.A.A.G.C.C.D.F.F.F.F.F.F.y.A.F.J.                          ",
"              J.@.s.H.L.D.G.F.! 2 5 , 0 6 1 5 5 6 c x.A.F.A.G.S.Z.S.D.D.F.F.A.D.F.F.A.T.                          ",
"              I.L.s.L.H.H.H.J.D.J , 5 6 , 6 5 1 1 5 0 c G x.F.G.F.F.D.D.D.F.J.H.F.J.J.                            ",
"              I.L.H.H.H.H.f._ Y > > & = M e w w 5 6 6 5 6 a c c.<...) ) : ; : o.A.N.l.                            ",
"              X.] B.B.g.> > > > _ ) > > : : : : : : * : : : : : : : : Y ' ) : - : ; ]                             ",
"              2.> > > > ) ' ] ] | | ] ] ] ' _ _ ) > ) > ) ) > > ' | ] ] ' ' > > _ >                               ",
"              f.| ] ) | | | | | | | ] ] | ] | ] | ] ] ] ] ] ] ] ' ] ' ' _ ' : > ] ]                               ",
"                | ) )  .| | | | |  .| ]  .| | | | ] ] | | ] ' > > > > : > > : ; ]                                 ",
"                | _ ) _ _ ) _ ) _ _ _ '  .| | | | | | ' > ) > ) _ ' ] | ' ] ' ; >                                 ",
"                ' ) ; _ ]  . . .| | _ ' _ _ _ _ _ ) _ ) _ | | | | | | | | | | | y.                                ",
"                _ ' )  .X.X.X.X. . . . .2.|  .2. . . .| |  . .| | | | | |  .| ]                                   ",
"                u.#.X.X.X.X.2.X.| 2.2.$ @ @ @ @ . ] 2. .X.X. .X. .X.X. .X. .| 2.                                  ",
"                M.o.o.#.X.@.X.o.#.o.o.- X.X.X.@ ] X.X.X.#.X.X... .'  .X. . .{                                     ",
"                F.5.2.2.o.o.o.X.o.X.X.% X. .@ o.X.; _ #.#.X.X.X. .|  . .X.X.y.                                    ",
"                B.] | ] X.o.o.o.o.=.<.- o.$  . .O _ ] #.#.#.#.#. .' ] X. .] B.                                    ",
"                  X.| ]  . .o.o.o.=.#.$ ] o  . .X  .| |  .X. .X. ._ X. .] #.                                      ",
"                  y.5.' |  . . . . . .% | : o.5.p.- y. . .X.| | ] > ] ]  .                                        ",
"                  j.y.] f.k.y.3.5.y.f.- X.; q.w.5.+ p.p.<.9.i.<.] ] 5.5.y.                                        ",
"                  G.q. .f.k.y.y.y.y.y.- y.# 5.y.] % s.5.p.p.9.9.5.] 5.5.                                          ",
"                  H.|  .k.s.j.f.y.k.k.; k.] o X _ k.p.y.y.y.p.k.5.5.5.k.                                          ",
"                  J.o. .k.k.y.y.3.#.o.% o.o.o.k.s.k.f.f.s.f.y.@.X.X. .                                            ",
"                    X.o.9.5.2.o.q.j.j.; k.f.o.5.w.k.k.k.k.2.X.@.o.f.z.                                            ",
"                    j.M.b.l.v.l.B.M.n.; l.M.l.y.2.<.o.2.5.2.y.k.k.n.                                              ",
"                    J.M.M.N.N.l.l.l.j.; l.B.M.m.v.k.s.s.s.l.v.l.k.l.                                              ",
"                    K.k.k.y. .z.k.l.k.- k.h.f.M.M.M.M.n.o.M.l.k.k.                                                ",
"                      M.B.X.X.M.N.C.C.; N.M.l.j.j.l.l. . .j.y.f.M.                                                ",
"                      C.A.o.2.A.A.A.A.: A.A.A.B.l.l.l. .| k.k.v.                                                  ",
"                      F.A.M.5.F.A.F.F.; A.A.C.F.A.A.A.j.o.A.C.K.                                                  ",
"                      Y.F.A.y.F.F.F.G.: F.A.F.F.F.F.F.F.5.A.A.                                                    ",
"                        F.J.F.J.G.J.J.: H.F.F.F.F.F.F.F.F.A.Y.                                                    ",
"                        J.K.J.J.L.H.G.] G.J.G.J.G.G.H.J.J.K.                                                      ",
"                          K.J.J.J.J.J.J.K.J.F.A.Z.A.N.A.F.                                                        ",
"                          F.J.F.F.G.H.J.F.F.A.F.D.F.F.F.K.                                                        ",
"                          Y.I.J.F.k.A.F.J.J.l.J.K.I.I.J.                                                          ",
"                            I.I.I.J.I.U.I.K.H.I.K.K.I.Y.                                                          ",
"                            Y.I.I.M.G.I.I.K.v.F.I.K.I.                                                            ",
"                            T.I.I.l.I.I.Y.I.B.I.Y.I.T.                                                            ",
"                              I.I.M.I.I.I.I.l.I.I.K.                                                              ",
"                              Y.N.A.Y.Y.U.M.N.Y.Y.Y.                                                              ",
"                              R.T.F.T.Y.Y.T.A.Y.Y.                                                                ",
"                                T.T.T.T.T.T.Y.T.                                                                  ",
"                                T.T.T.Y.T.T.T.R.                                                                  ",
"                                  R.R.T.R.T.                                                                      ",
"                                  E.R.E.R.W.                                                                      ",
"                                    W.R.W.                                                                        ",
"                                                                                                                  ",
"                                                                                                                  ",
"                                                                                                                  "
};
